<svg version="1.1" xmlns="http://www.w3.org/2000/svg" style="display: block;" viewBox="0 0 2048 2048" width="1000" height="1000" preserveAspectRatio="none">
<path transform="translate(0,0)" fill="rgb(212,187,106)" d="M 571.189 437.374 C 587.381 436.875 603.209 437.529 619.365 437.56 L 718.476 437.931 L 1013.51 437.359 C 1014.13 449.008 1013.81 465.034 1013.76 476.962 C 1019.39 476.741 1024.87 476.881 1030.5 476.968 C 1030.11 470.076 1029.76 443.819 1033.22 438.404 C 1040.58 437.221 1050.04 437.612 1057.76 437.495 C 1076.44 437.29 1095.12 437.3 1113.8 437.527 L 1266.14 437.841 L 1412 437.717 C 1433.29 437.736 1457.36 436.685 1478.48 438.308 C 1479.03 444.032 1478.95 450.029 1478.88 455.793 C 1478.57 481.985 1479.39 508.354 1478.59 534.521 C 1458.57 535.648 1430.62 534.809 1410.13 534.803 L 1265.93 534.927 C 1278.75 540.818 1292.21 548.931 1304.35 556.267 C 1378.45 601.072 1440.97 662.668 1486.87 736.085 C 1562.62 858.708 1587.17 1006.17 1555.24 1146.72 C 1525.18 1273.93 1450.83 1386.28 1345.5 1463.67 C 1329.83 1475.32 1313.41 1485.45 1296.84 1495.76 C 1285.46 1501.72 1272.78 1508.68 1261.02 1513.51 C 1270.78 1514.15 1286.53 1514.21 1296.22 1513.3 L 1296.4 1609.33 C 1285.1 1611.51 1262.83 1610.91 1250.39 1610.94 L 1172.83 1610.93 L 1084.79 1610.92 C 1069.22 1610.92 1047.29 1611.59 1032.49 1609.9 C 1031.81 1596.55 1032.53 1581.93 1032.23 1568.17 C 1027.14 1568.54 1022.17 1568.61 1017.08 1568.72 C 1017.08 1577.38 1017.86 1602.17 1015.25 1609.28 C 1004.8 1613.47 780.529 1610.23 752.065 1610.7 C 751.87 1578.38 752.358 1546.39 751.901 1514.01 C 762.815 1513.52 776.489 1513.84 787.612 1513.82 C 771.144 1507.65 740.099 1489.3 725.251 1479.4 C 646.475 1427.28 582.4 1355.82 539.162 1271.84 C 473.829 1144.69 461.329 996.886 504.378 860.565 C 535.35 761.472 593.829 673.214 673.01 606.064 C 683.285 597.248 695.218 586.539 706.005 578.694 C 731.223 560.355 758.542 547.628 786.083 533.275 C 763.093 533.594 740.165 534.804 717.198 534.806 C 667.998 534.812 618.784 534.982 569.586 534.712 C 569.861 524.391 569.504 440.762 571.189 437.374 z M 661.698 1404.73 C 706.777 1444.14 749.168 1476.42 804.467 1501.26 C 837.867 1516.26 838.895 1513.67 875.007 1513.79 C 876.168 1484.37 875.68 1454.47 875.622 1424.99 L 875.689 1313.78 L 875.796 968.3 L 875.82 736.902 C 876.033 709.105 875.904 681.306 875.433 653.512 C 875.034 616.252 879.621 532.429 821.598 537.028 C 693.077 590.988 591.288 693.839 538.663 822.913 C 483.781 957.596 483.537 1096.56 540.727 1230.72 C 566.418 1290.99 612.885 1360.94 661.698 1404.73 z M 1382.11 1408.76 C 1399.72 1393.35 1414.95 1374.68 1429.97 1356.84 C 1648.13 1097.82 1556.33 696.244 1253.57 549.384 C 1244.13 544.808 1227.68 536.235 1217.6 537.21 C 1204.47 539.95 1195.06 544.066 1187.89 556.229 C 1169.07 588.176 1173.28 638.128 1173.38 673.802 C 1173.19 705.899 1173.23 737.996 1173.48 770.092 L 1173.57 1057.44 L 1173.5 1351.08 L 1174.37 1455.55 C 1174.59 1477.27 1173.69 1490.79 1175.37 1513.25 C 1183.03 1513.58 1207.37 1515.16 1213.93 1512.91 C 1266.5 1494.89 1316.2 1462.88 1358.59 1427.24 C 1366.41 1420.67 1374.83 1415.09 1382.11 1408.76 z M 1014.08 1549.71 L 1020.81 1549.42 C 1024.03 1549.45 1028.2 1549.98 1030.61 1548.25 L 1030.76 853.818 L 1030.77 617.284 C 1030.76 578.009 1029.81 535.047 1030.8 496.051 L 1020.15 496.361 L 1014.56 497.035 C 1012.71 499.503 1013.4 510.307 1013.39 514.226 L 1013.33 1193.68 L 1013.32 1425.09 C 1013.32 1461.79 1011.79 1513.98 1014.08 1549.71 z"/>
</svg>